<?xml version="1.0" encoding="UTF-8"?><svg id="Layer_1" xmlns="http://www.w3.org/2000/svg" viewBox="0 0 35 28"><path d="M18.75,7.68l1.74,1.69,3.31-3.22M9.54,7.76h5.68" fill="none" stroke="#000" stroke-linecap="round" stroke-linejoin="round" stroke-width="2"/><path d="M27.34,7.76h5.72l-3.98,11.61h-15.56l-3.98-11.61-1.66-4.85H1.94" fill="none" stroke="#000" stroke-linecap="round" stroke-linejoin="round" stroke-width="2"/><path d="M16.3,26.14c1.11,0,2.01-.87,2.01-1.95s-.9-1.95-2.01-1.95-2.01.87-2.01,1.95.9,1.95,2.01,1.95Z" fill="none" stroke="#000" stroke-linecap="round" stroke-linejoin="round" stroke-width="2"/><path d="M26.29,26.14c1.11,0,2.01-.87,2.01-1.95s-.9-1.95-2.01-1.95-2.01.87-2.01,1.95.9,1.95,2.01,1.95Z" fill="none" stroke="#000" stroke-linecap="round" stroke-linejoin="round" stroke-width="2"/><path d="M27.34,7.76c0,3.26-2.71,5.9-6.06,5.9s-6.06-2.64-6.06-5.9,2.71-5.9,6.06-5.9,6.06,2.64,6.06,5.9Z" fill="none" stroke="#000" stroke-linecap="round" stroke-linejoin="round" stroke-width="2"/></svg>