<?xml version="1.0" encoding="UTF-8"?><svg id="Layer_1" xmlns="http://www.w3.org/2000/svg" viewBox="0 0 49 33"><path d="M48.22,26.81H6.13c-.1,0-.21-.03-.3-.07-.1-.04-.18-.1-.25-.18-.07-.08-.13-.16-.16-.26-.04-.1-.05-.2-.05-.31.11-2.03.64-4.01,1.57-5.82.92-1.81,2.22-3.4,3.8-4.68.16-.13.36-.19.56-.16.2.02.39.12.51.28.13.16.19.36.17.56-.02.2-.12.39-.28.51-2.64,2.14-4.33,5.22-4.73,8.59h40.45c-.13-1.31-.65-2.56-1.49-3.59-.84-1.03-1.96-1.78-3.22-2.18-.15-.05-.29-.14-.38-.27-.1-.13-.15-.28-.15-.44-.12-5.01-1.47-9.92-3.92-14.29l-.71,1.05,1.27,11.18c.01.1,0,.2-.03.3-.03.1-.08.19-.14.27l-4.35,5.39c-.07.09-.16.16-.27.21-.1.05-.22.07-.33.08h-9.19c-.19,0-.37-.07-.51-.19-.14-.12-.23-.29-.25-.48l-.76-6.13c-.02-.2.03-.4.16-.56.12-.16.31-.26.51-.29.2-.02.4.03.56.16.16.12.26.31.29.51l.68,5.46h8.15l3.92-4.85-1.26-11.14c-.02-.18.02-.36.12-.51l1.54-2.3c.07-.11.17-.19.28-.25.11-.06.24-.09.37-.09.13,0,.25.04.37.1.11.06.2.15.27.26,2.88,4.7,4.51,10.06,4.74,15.57,1.58.61,2.93,1.68,3.87,3.08.95,1.4,1.44,3.05,1.43,4.74,0,.2-.08.39-.23.54s-.34.22-.54.22Z" fill="#ff5f1b" stroke-width="0"/><path d="M34.44,26.81c-.17,0-.33-.06-.47-.16s-.23-.25-.27-.41c-.04-.16-.03-.34.03-.49s.18-.29.33-.37c3.18-1.82,5.99-4.22,8.29-7.08.13-.16.31-.26.51-.28.2-.02.4.04.56.16.16.13.26.31.28.51.02.2-.04.4-.16.56-2.42,3-5.37,5.53-8.72,7.45-.12.07-.25.1-.38.1ZM6.4,24.77c-.14,0-.28-.04-.4-.11-.12-.07-.22-.18-.28-.3l-4.13-7.92c-.05-.09-.07-.19-.08-.29,0-.1,0-.2.03-.3.03-.1.08-.19.14-.26.06-.08.14-.14.23-.19.09-.05.19-.07.29-.08.1,0,.2,0,.3.03.1.03.18.08.26.14s.14.14.19.23l4.13,7.92c.06.12.09.25.09.38,0,.13-.04.26-.11.37-.07.11-.16.21-.28.27-.11.06-.24.1-.38.1ZM40.28,7.63c-.18,0-.35-.06-.49-.17s-.23-.27-.26-.44c-.03-.17,0-.36.08-.51.08-.16.22-.28.39-.34.76-.3,1.39-.87,1.77-1.61.21-.48.31-1,.29-1.52-.02-.52-.15-1.03-.39-1.5h-4.14c-.2,0-.4-.08-.54-.22-.14-.14-.22-.34-.22-.54s.08-.4.22-.54C37.13.08,37.32,0,37.53,0h4.6c.13,0,.25.03.37.09.11.06.21.15.28.26.45.72.73,1.54.79,2.39.06.85-.08,1.7-.42,2.48-.54,1.07-1.45,1.91-2.57,2.35-.09.04-.19.06-.29.06Z" fill="#ff5f1b" stroke-width="0"/><path d="M41.35,32.17c-1.62,0-3.18-.65-4.33-1.8-1.15-1.15-1.79-2.7-1.8-4.33,0-.2.08-.4.22-.54.14-.14.34-.22.54-.22s.4.08.54.22c.14.14.22.34.22.54,0,1.22.48,2.39,1.35,3.25.86.86,2.03,1.35,3.25,1.35s2.39-.48,3.25-1.35c.86-.86,1.35-2.03,1.35-3.25,0-.2.08-.4.22-.54.14-.14.34-.22.54-.22s.4.08.54.22c.14.14.22.34.22.54,0,1.62-.65,3.18-1.8,4.33-1.15,1.15-2.71,1.79-4.33,1.79ZM26.81,16.85H1.53c-.41,0-.8-.16-1.08-.45-.29-.29-.45-.68-.45-1.08v-2.3c0-.41.16-.8.45-1.08.29-.29.68-.45,1.08-.45h16.85c0-.41.16-.8.45-1.08.29-.29.68-.45,1.08-.45h6.89c.41,0,.8.16,1.08.45.29.29.45.68.45,1.08v3.83c0,.41-.16.8-.45,1.08-.29.29-.68.45-1.08.45ZM1.53,13.02v2.3h25.27v-3.83h-6.89c0,.41-.16.8-.45,1.08-.29.29-.68.45-1.08.45H1.53ZM15.31,32.17c-1.62,0-3.18-.65-4.33-1.8-1.15-1.15-1.79-2.71-1.8-4.33,0-.2.08-.4.22-.54.14-.14.34-.22.54-.22s.4.08.54.22c.14.14.22.34.22.54,0,1.22.49,2.39,1.35,3.25s2.03,1.34,3.25,1.34,2.39-.48,3.25-1.34c.86-.86,1.35-2.03,1.35-3.25,0-.2.08-.4.22-.54.14-.14.34-.22.54-.22s.4.08.54.22c.14.14.22.34.22.54,0,1.62-.65,3.18-1.8,4.33-1.15,1.15-2.71,1.79-4.33,1.8Z" fill="#ff5f1b" stroke-width="0"/><path d="M16.08,13.02c-.1,0-.2-.02-.29-.06-.09-.04-.18-.09-.25-.17-.07-.07-.13-.16-.17-.25-.04-.09-.06-.19-.06-.29V1.53H3.83v10.72c0,.2-.08.4-.22.54-.14.14-.34.22-.54.22s-.4-.08-.54-.22c-.14-.14-.22-.34-.22-.54V.77c0-.1.02-.2.06-.29.04-.09.09-.18.17-.25.07-.07.16-.13.25-.17.09-.04.19-.06.29-.06h13.02c.1,0,.2.02.29.06.09.04.18.09.25.17.07.07.13.16.17.25.04.09.06.19.06.29v11.49c0,.1-.02.2-.06.29-.04.09-.09.18-.17.25-.07.07-.16.13-.25.17-.09.04-.19.06-.29.06Z" fill="#ff5f1b" stroke-width="0"/><path d="M11.49,6.89h-3.83c-.1,0-.2-.02-.29-.06-.09-.04-.18-.09-.25-.17-.07-.07-.13-.16-.17-.25-.04-.09-.06-.19-.06-.29V.77c0-.2.08-.4.22-.54C7.26.08,7.46,0,7.66,0s.4.08.54.22c.14.14.22.34.22.54v4.59h2.3V.77c0-.2.08-.4.22-.54.14-.14.34-.22.54-.22s.4.08.54.22c.14.14.22.34.22.54v5.36c0,.1-.02.2-.06.29-.04.09-.09.18-.17.25-.07.07-.16.13-.25.17-.09.04-.19.06-.29.06ZM5.36,10.72c-.1,0-.2-.02-.29-.06-.09-.04-.18-.09-.25-.17-.07-.07-.13-.16-.17-.25-.04-.09-.06-.19-.06-.29,0-.1.02-.2.06-.29.04-.09.09-.18.17-.25.14-.14.34-.22.54-.22h3.06s0,0,0,0c.1,0,.2.02.29.06.09.04.18.09.25.17.07.07.13.16.17.25.04.09.06.19.06.29,0,.1-.02.2-.06.29-.04.09-.09.18-.17.25-.07.07-.16.13-.25.17-.09.04-.19.06-.29.06h-3.06Z" fill="#ff5f1b" stroke-width="0"/></svg>