<?xml version="1.0" encoding="UTF-8"?><svg id="Layer_1" xmlns="http://www.w3.org/2000/svg" viewBox="0 0 512 341.33"><path d="M405.33,341.33H106.67C47.79,341.26.07,293.55,0,234.67V106.67C.07,47.79,47.79.07,106.67,0h298.67c58.88.07,106.6,47.79,106.67,106.67v128c-.07,58.88-47.79,106.6-106.67,106.67ZM106.67,42.67c-35.35,0-64,28.65-64,64v128c0,35.35,28.65,64,64,64h298.67c35.35,0,64-28.65,64-64V106.67c0-35.35-28.65-64-64-64H106.67ZM256,256c-47.13,0-85.33-38.21-85.33-85.33s38.21-85.33,85.33-85.33,85.33,38.21,85.33,85.33-38.21,85.33-85.33,85.33ZM256,128c-23.56,0-42.67,19.1-42.67,42.67s19.1,42.67,42.67,42.67,42.67-19.1,42.67-42.67-19.1-42.67-42.67-42.67ZM106.67,85.33c-11.78,0-21.33,9.55-21.33,21.33s9.55,21.33,21.33,21.33,21.33-9.55,21.33-21.33-9.55-21.33-21.33-21.33ZM384,106.67c0,11.78,9.55,21.33,21.33,21.33s21.33-9.55,21.33-21.33-9.55-21.33-21.33-21.33-21.33,9.55-21.33,21.33ZM106.67,213.33c-11.78,0-21.33,9.55-21.33,21.33s9.55,21.33,21.33,21.33,21.33-9.55,21.33-21.33-9.55-21.33-21.33-21.33ZM384,234.67c0,11.78,9.55,21.33,21.33,21.33s21.33-9.55,21.33-21.33-9.55-21.33-21.33-21.33-21.33,9.55-21.33,21.33Z" fill="#606a85" stroke-width="0"/></svg>