<?xml version="1.0" encoding="UTF-8"?><svg id="Layer_1" xmlns="http://www.w3.org/2000/svg" viewBox="0 0 48 35"><path d="M47.14,6.86h-1.71v-2.57c0-.23-.09-.45-.25-.61-.16-.16-.38-.25-.61-.25h-1.71V.86c0-.23-.09-.45-.25-.61-.16-.16-.38-.25-.61-.25H6c-.23,0-.45.09-.61.25-.16.16-.25.38-.25.61v2.57h-1.71c-.23,0-.45.09-.61.25-.16.16-.25.38-.25.61v2.57H.86c-.23,0-.45.09-.61.25-.16.16-.25.38-.25.61v25.71c0,.23.09.45.25.61.16.16.38.25.61.25h46.29c.23,0,.45-.09.61-.25.16-.16.25-.38.25-.61V7.71c0-.23-.09-.45-.25-.61-.16-.16-.38-.25-.61-.25ZM39.48,8.57c.2,1.74.97,3.36,2.21,4.59,1.24,1.24,2.86,2.02,4.59,2.21v10.39c-1.74.2-3.36.97-4.59,2.21-1.24,1.24-2.02,2.86-2.21,4.59H8.52c-.2-1.74-.97-3.36-2.21-4.59-1.24-1.24-2.86-2.02-4.59-2.21v-10.39c1.74-.19,3.36-.97,4.59-2.21,1.24-1.24,2.02-2.86,2.21-4.59h30.96ZM46.29,13.65c-1.28-.18-2.47-.78-3.39-1.7-.92-.92-1.51-2.1-1.7-3.39h5.08v5.08ZM6.86,1.71h34.29v1.71H6.86v-1.71ZM4.29,5.14h39.43v1.71H4.29v-1.71ZM1.71,8.57h5.08c-.18,1.28-.78,2.47-1.7,3.39-.92.92-2.1,1.51-3.39,1.7v-5.08ZM1.71,32.57v-5.08c1.28.18,2.47.78,3.39,1.7.92.92,1.51,2.1,1.7,3.39H1.71ZM46.29,32.57h-5.08c.18-1.28.78-2.47,1.7-3.39.92-.92,2.1-1.51,3.39-1.7v5.08Z" fill="#ff5f1b" stroke-width="0"/><path d="M24,29.14c1.7,0,3.35-.5,4.76-1.44,1.41-.94,2.51-2.28,3.16-3.85.65-1.57.82-3.29.49-4.95-.33-1.66-1.15-3.19-2.35-4.39-1.2-1.2-2.73-2.02-4.39-2.35-1.66-.33-3.39-.16-4.95.49-1.57.65-2.9,1.75-3.85,3.16-.94,1.41-1.44,3.07-1.44,4.76,0,1.13.22,2.24.65,3.28.43,1.04,1.06,1.98,1.86,2.78,1.61,1.61,3.79,2.51,6.06,2.51ZM24,13.71c1.36,0,2.68.4,3.81,1.16,1.13.75,2.01,1.82,2.53,3.08.52,1.25.65,2.63.39,3.96-.26,1.33-.92,2.55-1.88,3.51-.96.96-2.18,1.61-3.51,1.88-1.33.26-2.71.13-3.96-.39-1.25-.52-2.32-1.4-3.08-2.53-.75-1.13-1.16-2.45-1.16-3.81,0-1.82.72-3.56,2.01-4.85,1.29-1.29,3.03-2.01,4.85-2.01Z" fill="#ff5f1b" stroke-width="0"/></svg>