<?xml version="1.0" encoding="UTF-8"?><svg id="Layer_1" xmlns="http://www.w3.org/2000/svg" xmlns:xlink="http://www.w3.org/1999/xlink" viewBox="0 0 48 48"><defs><clipPath id="clippath"><rect width="48" height="48" fill="none" stroke-width="0"/></clipPath></defs><g clip-path="url(#clippath)"><path d="M24,0C10.75,0,0,10.75,0,24s10.75,24,24,24,24-10.75,24-24S37.25,0,24,0ZM24,1c12.71,0,23,10.29,23,23s-10.29,23-23,23S1,36.71,1,24,11.29,1,24,1ZM22.5,12c-.83,0-1.5.67-1.5,1.5,0,.28-.22.5-.5.5h-1c-.28,0-.5.22-.5.5s.22.5.5.5h1c.83,0,1.5-.67,1.5-1.5,0-.28.22-.5.5-.5h1.5c.28,0,.5-.22.5-.5s-.22-.5-.5-.5h-1.5ZM27.5,12c-.83,0-1.5.67-1.5,1.5,0,.28-.22.5-.5.5h-.5c-.28,0-.5.22-.5.5s.22.5.5.5h.5c.83,0,1.5-.67,1.5-1.5,0-.28.22-.5.5-.5h.5c.28,0,.5-.22.5-.5s-.22-.5-.5-.5h-.5ZM23,15c-.28,0-.5.22-.5.5v.5h-3c-.13,0-.26.05-.35.15l-2,2c-.06.06-.1.14-.12.23,0,.02,0,.04-.01.06,0,.02-.01.04-.01.06v.5h-.5c-.83,0-1.5.67-1.5,1.5s.67,1.5,1.5,1.5h.5v4.5c0,1.38,1.12,2.5,2.5,2.5h7c1.38,0,2.5-1.12,2.5-2.5v-4.5h1.65c.18,0,.34-.09.43-.24.05-.08.18-.26.42-.26s.37.18.42.26c.09.15.25.24.43.24h.31c.18,0,.34-.09.43-.24.05-.08.18-.26.42-.26s.37.18.42.26c.09.15.25.24.43.24h.31c.18,0,.34-.09.43-.24.05-.08.18-.26.42-.26s.37.18.42.26c.09.15.25.24.43.24h.15c.28,0,.5-.22.5-.5v-2c0-.28-.22-.5-.5-.5h-7.5v-.5s-.01-.04-.01-.06c0-.02,0-.04-.01-.06-.02-.09-.06-.16-.12-.22l-2-2c-.09-.09-.22-.15-.35-.15h-3v-.5c0-.28-.22-.5-.5-.5ZM19.71,17h6.59l1,1h-8.59l1-1ZM18,19h10v7.5c0,.83-.67,1.5-1.5,1.5h-7c-.83,0-1.5-.67-1.5-1.5v-7.5ZM16.5,20h.5v1h-.5c-.28,0-.5-.22-.5-.5s.22-.5.5-.5ZM29,20h7v.59c-.5-.18-1.1-.06-1.5.31-.54-.51-1.46-.51-2,0-.58-.54-1.57-.5-2.1.1h-1.4v-1ZM16.5,30c-.17,0-.32.08-.42.22l-2,3c-.1.15-.11.35-.03.51.09.16.26.26.44.26h17c.18,0,.35-.1.44-.26.09-.16.08-.36-.03-.51l-2-3c-.09-.14-.25-.22-.42-.22h-13ZM16.77,31h12.46l1.33,2h-15.13l1.33-2Z" fill="#000" stroke-width="0"/></g></svg>