<?xml version="1.0" encoding="UTF-8"?><svg id="Layer_1" xmlns="http://www.w3.org/2000/svg" viewBox="0 0 25 26"><path d="M22.86,17.54c-.72,1.76-1.84,3.3-3.26,4.5-1.43,1.2-3.11,2.03-4.92,2.4-1.8.37-3.67.28-5.43-.27-1.76-.55-3.36-1.54-4.67-2.88-1.31-1.34-2.28-2.99-2.83-4.81-.55-1.82-.66-3.75-.32-5.62.34-1.87,1.11-3.63,2.25-5.12,1.14-1.49,2.62-2.67,4.31-3.43" fill="none" stroke="#000" stroke-linecap="round" stroke-linejoin="round" stroke-width="2"/><path d="M23.75,13c0-1.53-.29-3.05-.86-4.46-.57-1.42-1.39-2.7-2.44-3.78-1.04-1.08-2.28-1.94-3.65-2.53-1.36-.59-2.83-.89-4.31-.89v11.67h11.25Z" fill="none" stroke="#000" stroke-linecap="round" stroke-linejoin="round" stroke-width="2"/></svg>