<svg width="44" height="44" viewBox="0 0 44 44" fill="none" xmlns="http://www.w3.org/2000/svg">
<path d="M11 3.6665L5.5 10.9998V36.6665C5.5 37.639 5.88631 38.5716 6.57394 39.2592C7.26158 39.9469 8.19421 40.3332 9.16667 40.3332H34.8333C35.8058 40.3332 36.7384 39.9469 37.4261 39.2592C38.1137 38.5716 38.5 37.639 38.5 36.6665V10.9998L33 3.6665H11Z" stroke="white" stroke-width="2" stroke-linecap="round" stroke-linejoin="round"/>
<path d="M5.5 11H38.5" stroke="white" stroke-width="2" stroke-linecap="round" stroke-linejoin="round"/>
<path d="M29.3334 18.3335C29.3334 20.2784 28.5608 22.1437 27.1855 23.5189C25.8103 24.8942 23.945 25.6668 22.0001 25.6668C20.0552 25.6668 18.1899 24.8942 16.8146 23.5189C15.4394 22.1437 14.6667 20.2784 14.6667 18.3335" stroke="white" stroke-width="2" stroke-linecap="round" stroke-linejoin="round"/>
</svg>
