<?xml version="1.0" encoding="UTF-8"?><svg id="Layer_1" xmlns="http://www.w3.org/2000/svg" viewBox="0 0 41 42"><path d="M19.3,0c2.56-.06,5.17.37,7.08,2.24.23.23.44.51.7.71.2.15.44.24.65.38,2.46,1.67,3.5,5.15,3.48,7.95v.75c0,.24-.03.32.12.51,1.91,2.44,1.36,6.34-1.36,8.04-.91.57-1.15.79-2.17.88-.61.06-.48.28-.55.8-.12.88-.36,2.13.01,2.98l.02.05c.39.89,1.18,1.23,2.04,1.51l6.6,2.28c1.44.55,2.84,1.22,3.75,2.52.82,1.16,1.55,3.23,1.27,4.7v.05c-.19.99-1.24,1.34-2.07,1.64-.31.11-.64.27-.97.21-.3-.06-.62-.48-.54-.79v-.04c.23-.84,2.1-.8,2.21-1.23.04-.17.03-.39.02-.57-.13-4.08-3.15-4.91-6.54-6.03l-2.96-1.01-1.27,3.02c-1.8,3.81-4.33,7.55-7.73,10.15-.75.52-.99.27-1.65-.28l-1.11-1.01c-2.51-2.48-4.53-5.35-6.07-8.51l-1.31-2.93c-.05-.13-.1-.27-.18-.39l-2.97,1.03c-1.83.61-4.28,1.18-5.44,2.84-.65.92-1.16,2.57-.95,3.73.54.4,2.04.45,2.17,1.18v.03c.21,1.02-.85.79-1.42.6C.81,37.53-.02,37.19,0,35.66c.02-1.49.58-3.25,1.56-4.39.9-1.05,2.16-1.65,3.43-2.13l5.84-2.06c1.17-.43,1.87-.41,2.65-1.55.41-.6.37-1.77.24-2.46v-.05c-.1-.46-.39-.84-.64-1.24l-1.95-3.35c-.21-.05-.44-.04-.65-.08-1.73-.3-2.55-2.18-2.28-3.76l.02-.12c.18-.84.64-1.5,1.36-1.97l-.03-.19c-.06-.64-.04-1.29-.04-1.93,0-2.65.41-4.84,2.16-6.91C13.56,1.22,16.45.25,19.3,0ZM25.97,7.64c-.82.17-1.5.71-2.21,1.13-1.67.98-3.36,1.43-5.32,1.3-1.52-.1-2.97-.71-4.49-.78-1.43-.06-1.27,1.36-1.42,2.43-.12.81-.23,2-.68,2.71-.11.17-.42.44-.45.62-.06.28.46,1.57.58,1.87,1.41,3.48,4.74,8.69,9.2,7.95,1.84-.31,3.24-1.57,4.59-2.76l-.76.05c-.19,0-.31.21-.45.32-.77.6-2.27.74-3.09.25-1.54-.91-.93-2.84.81-3.2h.08c.83-.17,1.87.05,2.21.91.01.03.09.29.1.29.05.03,1.61-.21,1.82-.23l1.07-1.8.91-1.9c.35-.67.96-1.31.69-2.23l-.04-.11c-.08-.21-.2-.4-.29-.61-.4-.94-.41-2.02-.61-3.01-.21-1.08-.89-3.27-2.24-3.2ZM19.33,1.38c-2.6.3-5.08,1.01-6.78,3.16-1.44,1.81-1.68,3.7-1.68,5.95,0,.53-.04,1.1.03,1.63l.08.32c.44-.89.02-2.3.92-3.64l.03-.04c.17-.25.4-.47.66-.61l.04-.02c1.1-.58,3.7.21,4.93.45,1.56.3,3.08.2,4.53-.47,1.45-.72,3.27-2.38,4.92-1.65,1.71.76,2.3,2.8,2.56,4.48.06.41.07.86.23,1.25.4-2.34-.83-6.34-2.81-7.69-.26-.18-.55-.33-.8-.53-.36-.28-.65-.64-1-.94-1.65-1.43-3.76-1.71-5.86-1.65ZM14.4,26.5c-.67.77-1.35,1.19-2.26,1.61.86,2.78,2.9,6.36,4.69,8.55l.21.21c.22-1.07.59-3.12,1.12-4.08-.44-.65-1.07-1.7-.94-2.54v-.04c.07-.4.37-.72.65-.99-1.67-.8-2.22-1.62-3.47-2.72ZM26.44,26.52c-1.03,1.06-1.96,2.07-3.36,2.65,1.15,1.1.63,2.03-.04,3.24-.36.65-.15.41.13,1.32.32,1.04.57,2.13.77,3.2l.29-.38c1.74-2.1,3.75-5.89,4.53-8.46-1.4-.49-1.38-.78-2.31-1.56ZM19.47,33.46c-.51.25-.84,2.5-.95,3.02l-.37,1.77c.61.76,1.59,1.63,2.35,2.24l.53-.46,1.78-1.75-.41-1.96c-.1-.46-.47-2.48-.81-2.79-.13-.11-1.88-.11-2.13-.07ZM25.68,23.92c-2.73,2.63-6.11,3.15-9.33,1.1-.45-.29-.81-.61-1.23-.94-.03.35-.12.88.1,1.17l.33.43c.87,1.03,2.39,2.43,3.84,2.56l2.46.04c.15,0,.32-.14.45-.2.76-.39,3.41-2.19,3.41-3.12l-.04-1.04ZM19.93,29.69c-1.59.05-1.49,1.04-.8,2.12.18.29.24.24.58.24h1.31s.66-.02.66-.02c.25-.26.69-1.28.71-1.6-.39-.79-1.27-.73-2.04-.75-.12,0-.29-.02-.41,0ZM30.54,14.12c-.06.84.1,2.94-.53,3.47-.18.15-.42.19-.6.35-.16.14-.72,1.51-.79,1.73.16-.05.29-.1.43-.18.9-.54,1.67-1.35,1.92-2.4l.09-.57c.06-.62-.03-1.87-.45-2.4h-.07ZM9.86,14.04c-.28.36-.41.89-.36,1.34l.02.15c.09.55.4,1.08.84,1.43l.2.06c-.31-.84-.66-1.42-.5-2.4.03-.2.05-.33-.08-.51l-.12-.08ZM22.64,20.88c-.63.14-1.05.61-.26.76h.04c.12.03.25.03.37.03.97-.02.83-.7.29-.78h-.04c-.14-.03-.26-.02-.4-.02Z" fill="#ff5f1b" stroke-width="0"/></svg>