<?xml version="1.0" encoding="UTF-8"?><svg id="Layer_1" xmlns="http://www.w3.org/2000/svg" viewBox="0 0 43 36"><path d="M35.07,2.59v8.16l.91-.91H8.47c-.96,0-1.88.46-2.36,1.32-.32.57-.33,1.17-.33,1.79v12.26l.91-.91H2.6s-.19,0-.19,0h.12s-.08,0-.12-.01c-.04,0-.08-.02-.11-.04-.09-.04-.07-.03.05.03,0,0-.15-.08-.15-.08-.19-.11,0,0,0,0,0,0-.25-.24-.25-.25.02-.02.11.17.04.04-.03-.05-.06-.1-.09-.15.05.19-.1-.17,0,0,0-.02-.07-.23-.06-.23v.12s0-.08,0-.12c0-.08,0-.04,0-.06v-.05c0-1.57,0-3.15,0-4.73V2.53s0-.04,0-.06c0-.1,0-.08,0,.06,0,0,.05-.21.06-.23.05-.2-.1.17,0,0,.03-.05.06-.1.09-.15.1-.17-.14.14,0,0,.04-.04.08-.09.12-.13.15-.15,0,0,0,0,0,0,.14-.09.15-.1.19-.1,0,0,0,0,0,0,.15-.05.17-.05.02,0,.04,0,.06-.01.1-.02.08-.02-.06,0,0,0,.17,0,.19,0h28.6c1.04,0,2.08-.01,3.11,0,.02,0,.19,0,.19,0,0,.02-.22-.06-.03,0,.05.01.1.03.15.04.2.05-.17-.1,0,0,.05.03.1.06.15.09.17.1-.14-.14,0,0,.04.04.09.08.13.12.15.15,0,0,0,0,0,0,.09.14.1.15.1.19,0,0,0,0,0,0,.05.16.05.17,0,.02,0,.04.01.06.02.1.02.08,0-.06,0,0,0,.18,0,.19,0,.48.41.93.91.91.49-.02.92-.4.91-.91-.03-1.42-1.16-2.56-2.59-2.59H3.53C3.21,0,2.9,0,2.59,0,1.46.02.49.73.12,1.8c-.11.31-.12.65-.12.97v20.73c.01,1.12.7,2.07,1.74,2.45.52.19,1.11.14,1.66.14h3.29c.49,0,.91-.42.91-.91v-8.92c0-1.26,0-2.52,0-3.78v-.12s0-.08,0-.12c0-.12-.05.17,0,.06.03-.07.05-.16.06-.23.02-.11-.09.15-.02.05.03-.04.05-.09.07-.13,0,0,.06-.1.06-.1.02,0-.13.15-.04.05l.16-.16c.12-.12-.04.04-.05.04,0,0,.09-.05.1-.06.03-.02.07-.04.1-.06.16-.1-.18.05,0,0,.01,0,.23-.07.23-.06,0,.01-.24.01-.06,0,.04,0,.08,0,.12,0h0c.18,0,.36,0,.53,0h27.08c.49,0,.91-.42.91-.91V2.59c0-.48-.42-.93-.91-.91-.49.02-.91.4-.91.91Z" fill="#ff5f1b" stroke-width="0"/><path d="M.91,7.44h33.64c.46,0,.91,0,1.37,0h.06c.48,0,.93-.42.91-.91s-.4-.91-.91-.91H2.34c-.46,0-.91,0-1.37,0h-.06C.44,5.62-.02,6.04,0,6.53c.02.5.4.91.91.91ZM40.85,12.42v20.02s0,.19,0,.2c-.02,0,.05-.24,0-.06-.02.05-.03.11-.05.17-.05.18.08-.11.01-.03-.04.05-.07.12-.1.18-.09.16.11-.1.02-.02-.04.03-.06.07-.1.11,0,0-.12.12-.13.12-.02-.02.17-.11.04-.04-.05.03-.1.06-.15.09.19-.05-.17.1,0,0-.04,0-.08.02-.11.04-.04,0-.08.02-.12.03.14-.02.16-.02.06,0-.81,0-1.61,0-2.42,0H10.8c-.81,0-1.63.01-2.44,0h-.06s-.04,0-.06,0c-.1,0-.08,0,.06,0,0,0-.16-.04-.18-.04-.01,0-.11-.04-.11-.04,0,0,.19.1,0,0-.03-.02-.07-.04-.1-.06-.08-.05-.06-.04.04.04-.03-.02-.06-.05-.09-.08-.04-.03-.07-.07-.1-.1-.13-.13.03.01.01.02,0,0-.15-.25-.15-.25,0,0,.07.2,0,0,0-.01-.05-.18-.04-.18.01,0,.01.24,0,.06,0-.05,0-.07,0-.13v-16.34c0-1.22-.02-2.45,0-3.68h0s0,.03,0-.07c0-.02,0-.04,0-.06,0-.1,0-.08,0,.06,0,0,.06-.29.08-.29,0,0-.1.19,0,0,0,0,.09-.15.1-.15,0,0-.14.16,0,0,.03-.04.07-.07.1-.1.13-.13-.01.03-.02.01,0,0,.14-.09.15-.1.01,0,.1-.05.1-.05,0,0-.2.07,0,0,.05-.01.1-.02.15-.04.07-.01.04,0-.09,0,.04,0,.08,0,.12,0,.07,0,.15,0,.21,0h31.63s.04,0,.06,0q.08,0,0,0s-.04,0-.06,0c.04,0,.08.02.12.03.01,0,.17.05.17.05,0,.03-.18-.09-.05-.02.05.03.1.06.15.09.17.1-.14-.14,0,0,.02.02.21.2.2.21-.02.02-.11-.19-.02-.02.02.04.05.09.07.13.1.17-.05-.19,0,0,0,.04.02.08.04.11,0,.02,0,.04.01.06.02.1.02.08,0-.06,0,0,0,.17,0,.19,0,.48.41.93.91.91.49-.02.92-.4.91-.91-.02-1.19-.86-2.31-2.07-2.53-.22-.04-.43-.05-.65-.05H8.48c-.25,0-.49.02-.72.07-1.16.26-1.96,1.35-1.98,2.51,0,.33,0,.66,0,.99v18.8c0,.12,0,.24,0,.36.1,1.29,1.05,2.29,2.33,2.44.27.03.56.02.83.02h30.61c.4,0,.8.02,1.2-.09,1.13-.3,1.9-1.35,1.92-2.5V12.42c0-.48-.42-.93-.91-.91-.49.02-.91.4-.91.91Z" fill="#ff5f1b" stroke-width="0"/><path d="M11.7,28.75h3.15c.48,0,.93-.42.91-.91-.02-.49-.4-.91-.91-.91h-3.15c-.48,0-.93.42-.91.91.02.49.4.91.91.91ZM16.99,21.18h-4.24c-.1,0-.06.03,0,0,.05-.03.08.02,0,0,0,0-.11-.03-.12-.04,0-.04.18.1.05.01-.14-.1.04.04.04.04,0,0-.09-.09-.09-.08-.11-.1.07.03.03.05,0,0-.05-.07-.05-.08-.05-.1.05.19,0,.02,0,0-.03-.12-.03-.12.03-.01,0,.2.01.05v-4.05c0-.06,0-.13,0-.2,0-.01,0-.06,0-.07.04.05-.04.18,0,.06,0,0,.03-.12.04-.12,0,0-.09.21-.01.05.06-.13-.02.07-.04.04,0,0,.09-.09.08-.09.1-.11-.04.04-.05.03,0,0,.1-.07.1-.06.02.04-.2.05-.05.02.02,0,.11-.02.12-.03-.02.02-.22,0-.05.01h3.96c.09,0,.18,0,.26,0,.02,0,.08,0,.09,0-.06.05-.18-.05-.06,0,.02,0,.1.04.12.04-.03,0-.19-.1-.05-.01.12.08-.04-.04-.04-.04,0,0,.07.07.09.08.13.12-.05-.04-.03-.05,0,0,.07.1.06.1-.01,0-.06-.23-.02-.05,0,.02.02.1.03.12,0-.01,0-.18-.02-.09v.04c0,.07,0,.15,0,.22v4.02s0,.06,0,.07c-.02-.02.06-.22,0-.06,0,.02,0,.04-.02.06q-.03.08,0,0s.04-.08,0,0c-.09.15.04-.04.04-.04,0,0-.07.07-.08.09-.1.11.03-.07.05-.03,0,0-.11.05-.1.06,0-.01.22-.06.05-.02-.03,0-.06.01-.09.02-.12.03.24-.02.03-.01-.47.01-.93.41-.91.91.02.48.4.92.91.91,1.08-.03,1.93-.87,1.95-1.95,0-.22,0-.44,0-.66v-2.84c0-.25,0-.5,0-.75-.02-.91-.66-1.78-1.58-1.93-.3-.05-.59-.04-.89-.04h-1.35c-.78,0-1.56,0-2.33,0-.85,0-1.59.51-1.88,1.32-.12.33-.11.68-.11,1.03v3.76c0,.71.32,1.38.94,1.77.41.25.85.28,1.3.28h3.96c.48,0,.93-.42.91-.91-.02-.5-.4-.91-.91-.91ZM18.31,28.75h3.15c.48,0,.93-.42.91-.91-.02-.49-.4-.91-.91-.91h-3.15c-.48,0-.93.42-.91.91.02.49.4.91.91.91ZM24.93,28.79h3.15c.48,0,.93-.42.91-.91-.02-.49-.4-.91-.91-.91h-3.15c-.48,0-.93.42-.91.91.02.49.4.91.91.91ZM31.54,28.79h3.15c.48,0,.93-.42.91-.91-.02-.49-.4-.91-.91-.91h-3.15c-.48,0-.93.42-.91.91.02.49.4.91.91.91Z" fill="#ff5f1b" stroke-width="0"/></svg>