<?xml version="1.0" encoding="UTF-8"?><svg id="Layer_1" xmlns="http://www.w3.org/2000/svg" viewBox="0 0 46 46"><path d="M13.8,43.89c.17.12.37.19.57.19.25,0,.5-.1.68-.28.18-.18.28-.42.28-.68v-4.79h18.21c.25,0,.5-.1.68-.28.18-.18.28-.42.28-.68s-.1-.5-.28-.68c-.18-.18-.42-.28-.68-.28H14.38c-.25,0-.5.1-.68.28-.18.18-.28.42-.28.68v3.83l-8.94-6.71,8.94-6.71v3.83c0,.25.1.5.28.68.18.18.42.28.68.28h26.83c.25,0,.5-.1.68-.28.18-.18.28-.42.28-.68v-13.42c0-.25-.1-.5-.28-.68-.18-.18-.42-.28-.68-.28s-.5.1-.68.28c-.18.18-.28.42-.28.68v12.46H15.33v-4.79c0-.18-.05-.35-.14-.5-.09-.15-.23-.27-.39-.35-.16-.08-.34-.11-.51-.1-.18.02-.35.08-.49.19l-11.5,8.62c-.12.09-.22.21-.28.34-.07.13-.1.28-.1.43s.03.3.1.43c.07.13.16.25.28.34l11.5,8.62Z" fill="#ff5f1b" stroke-width="0"/><path d="M25.88,20.12c.25,0,.5-.1.68-.28.18-.18.28-.42.28-.68s-.1-.5-.28-.68-.42-.28-.68-.28h-1.92v-.96c0-.25-.1-.5-.28-.68-.18-.18-.42-.28-.68-.28s-.5.1-.68.28-.28.42-.28.68v.96h-1.92c-.25,0-.5.1-.68.28-.18.18-.28.42-.28.68v3.83c0,.25.1.5.28.68s.42.28.68.28h4.79v1.92h-4.79c-.25,0-.5.1-.68.28s-.28.42-.28.68.1.5.28.68.42.28.68.28h1.92v.96c0,.25.1.5.28.68s.42.28.68.28.5-.1.68-.28c.18-.18.28-.42.28-.68v-.96h1.92c.25,0,.5-.1.68-.28.18-.18.28-.42.28-.68v-3.83c0-.25-.1-.5-.28-.68-.18-.18-.42-.28-.68-.28h-4.79v-1.92h4.79Z" fill="#ff5f1b" stroke-width="0"/><path d="M31.2,20.99c.16.08.34.11.52.09.18-.02.35-.08.49-.19l11.5-8.62c.12-.09.22-.21.28-.34.07-.13.1-.28.1-.43s-.03-.3-.1-.43c-.07-.13-.16-.25-.28-.34l-11.5-8.63c-.14-.11-.31-.17-.49-.19-.18-.02-.36.02-.51.1-.16.08-.29.2-.39.35-.09.15-.14.33-.14.5v4.79H12.46c-.25,0-.5.1-.68.28-.18.18-.28.42-.28.68s.1.5.28.68c.18.18.42.28.68.28h19.17c.25,0,.5-.1.68-.28.18-.18.28-.42.28-.68v-3.83l8.94,6.71-8.94,6.71v-3.83c0-.25-.1-.5-.28-.68-.18-.18-.42-.28-.68-.28H4.79c-.25,0-.5.1-.68.28s-.28.42-.28.68v13.42c0,.25.1.5.28.68.18.18.42.28.68.28s.5-.1.68-.28c.18-.18.28-.42.28-.68v-12.46h24.92v4.79c0,.18.05.35.14.51.09.15.23.28.39.36Z" fill="#ff5f1b" stroke-width="0"/></svg>