<?xml version="1.0" encoding="UTF-8"?><svg id="Layer_1" xmlns="http://www.w3.org/2000/svg" viewBox="0 0 34 47"><path d="M3.54,18.95c1,.65,1.59,1.7,1.57,2.8l-.4,22.02c-.03,1.65,1.25,3.06,2.92,3.21.45.04.91-.01,1.34-.15.43-.14.83-.36,1.16-.66.33-.29.6-.65.77-1.05s.27-.82.26-1.26l-.41-22.12c-.02-1.11.56-2.15,1.56-2.8,2.28-1.48,3.54-4.12,3.54-7.41C15.84,6.1,12.45.02,7.92.02S0,6.1,0,11.54c0,3.3,1.26,5.93,3.54,7.41ZM7.92,1.53c3.19,0,6.33,4.96,6.33,10.01,0,2.78-1.01,4.97-2.84,6.16-1.44.94-2.29,2.46-2.26,4.08l.41,22.12c0,.22-.04.43-.13.63s-.22.38-.39.53c-.17.15-.37.26-.59.33s-.45.09-.68.07c-.84-.07-1.49-.81-1.47-1.67l.4-22.02c.03-1.62-.82-3.14-2.26-4.08-1.83-1.19-2.84-3.38-2.84-6.16,0-5.05,3.13-10.01,6.33-10.01ZM22.83,18.51l1.14.29c.17.04.32.14.43.28s.16.3.16.47l-.45,24.34c0,.41.07.81.23,1.19s.4.72.7,1.01c.61.59,1.43.92,2.3.92s1.69-.33,2.3-.92c.3-.29.54-.63.7-1.01s.24-.78.23-1.19l-.45-24.34c0-.17.05-.33.16-.47.11-.14.26-.23.43-.28l1.14-.29c.63-.16,1.19-.52,1.59-1.02.39-.5.6-1.11.58-1.74l-.41-14.52c0-.33-.15-.64-.4-.87-.25-.23-.58-.36-.93-.36h-1.18c-.35,0-.69.13-.94.37-.25.24-.39.56-.39.89v11.94h-.49V1.26C29.27.57,28.67,0,27.94,0h-1.22c-.35,0-.69.13-.94.37-.25.24-.39.56-.39.89v11.94h-.49V1.26C24.91.57,24.31,0,23.58,0h-1.18c-.35,0-.68.13-.93.36-.25.23-.39.54-.4.87l-.41,14.52c-.02.62.18,1.24.58,1.74s.95.86,1.59,1.02ZM22.66,1.52h.66v11.94c0,.7.6,1.26,1.33,1.26h1.02c.73,0,1.33-.57,1.33-1.26V1.52h.69v11.94c0,.7.6,1.26,1.33,1.26h1.02c.73,0,1.33-.57,1.33-1.26V1.52h.66l.4,14.27c0,.28-.08.56-.26.79-.18.23-.43.39-.72.46l-1.14.29c-.52.13-.97.42-1.29.83-.32.41-.49.9-.48,1.41l.45,24.34c0,.21-.03.41-.11.6-.08.19-.2.37-.35.51-.62.6-1.71.6-2.33,0-.15-.15-.27-.32-.35-.51-.08-.19-.12-.4-.11-.6l.45-24.34c0-.51-.16-1-.48-1.41-.32-.41-.78-.7-1.29-.83l-1.14-.29c-.29-.07-.54-.24-.72-.46-.18-.23-.27-.51-.26-.79l.4-14.27Z" fill="#ff5f1b" stroke-width="0"/></svg>